<svg width="270" height="356" viewBox="0 0 270 356" fill="none" xmlns="http://www.w3.org/2000/svg">
<g clip-path="url(#clip0_15_306)">
<path fill-rule="evenodd" clip-rule="evenodd" d="M10 0C7.34784 0 4.8043 1.05357 2.92893 2.92893C1.05357 4.8043 0 7.34784 0 10L0 346C0 348.652 1.05357 351.196 2.92893 353.071C4.8043 354.946 7.34784 356 10 356H260C262.652 356 265.196 354.946 267.071 353.071C268.946 351.196 270 348.652 270 346V9V113L150 0H10Z" fill="#12646F"/>
<path fill-rule="evenodd" clip-rule="evenodd" d="M196 113H160C157.348 113 154.804 111.946 152.929 110.071C151.054 108.196 150 105.652 150 103V0L166.9 15.9L251.6 95.7L269.9 113H196Z" fill="#248B98"/>
<mask id="mask0_15_306" style="mask-type:luminance" maskUnits="userSpaceOnUse" x="236" y="327" width="10" height="13">
<path d="M236.5 331.35C236.5 328.948 238.448 327 240.85 327V327C243.252 327 245.2 328.948 245.2 331.35V335.65C245.2 338.052 243.252 340 240.85 340V340C238.448 340 236.5 338.052 236.5 335.65V331.35Z" fill="white"/>
</mask>
<g mask="url(#mask0_15_306)">
<mask id="mask1_15_306" style="mask-type:luminance" maskUnits="userSpaceOnUse" x="236" y="326" width="10" height="15">
<path d="M238 326.95C238 326.978 238.022 327 238.05 327H243.7C244.5 327 245.2 327.6 245.2 328.4V338.6C245.2 339.4 244.5 340.1 243.7 340.1H238C237.1 340.1 236.5 339.4 236.5 338.6V328.4C236.5 327.615 237.078 326.926 237.95 326.901C237.977 326.9 238 326.922 238 326.95V326.95Z" fill="white"/>
</mask>
<g mask="url(#mask1_15_306)">
<path d="M236.5 331.35C236.5 328.948 238.448 327 240.85 327V327C243.252 327 245.2 328.948 245.2 331.35V335.65C245.2 338.052 243.252 340 240.85 340V340C238.448 340 236.5 338.052 236.5 335.65V331.35Z" fill="#248B98"/>
</g>
</g>
<mask id="mask2_15_306" style="mask-type:luminance" maskUnits="userSpaceOnUse" x="223" y="296" width="32" height="37">
<path d="M223 296H255V332.7H223V296Z" fill="white"/>
</mask>
<g mask="url(#mask2_15_306)">
<mask id="mask3_15_306" style="mask-type:luminance" maskUnits="userSpaceOnUse" x="215" y="288" width="53" height="53">
<path d="M240.5 288.5L267.2 313.5L242.1 340.2L215.4 315.2L240.5 288.5Z" fill="white"/>
</mask>
<g mask="url(#mask3_15_306)">
<mask id="mask4_15_306" style="mask-type:luminance" maskUnits="userSpaceOnUse" x="215" y="288" width="53" height="53">
<path d="M240.5 288.5L267.2 313.5L242.1 340.2L215.4 315.2L240.5 288.5Z" fill="white"/>
</mask>
<g mask="url(#mask4_15_306)">
<path d="M248.8 320.8L248.5 321.1C247.155 322.523 245.419 323.515 243.51 323.951C241.602 324.387 239.607 324.248 237.778 323.55C235.948 322.853 234.367 321.628 233.233 320.032C232.1 318.436 231.465 316.54 231.409 314.583C231.353 312.626 231.879 310.696 232.919 309.038C233.96 307.379 235.469 306.067 237.255 305.266C239.042 304.465 241.025 304.212 242.956 304.538C244.886 304.865 246.676 305.756 248.1 307.1L248.4 307.5L254.2 301.4L253.9 301C251.261 298.526 247.948 296.889 244.38 296.296C240.811 295.704 237.147 296.182 233.85 297.671C230.553 299.16 227.772 301.592 225.857 304.661C223.942 307.731 222.979 311.298 223.091 314.914C223.203 318.53 224.383 322.031 226.484 324.976C228.585 327.921 231.511 330.177 234.894 331.46C238.276 332.743 241.963 332.994 245.488 332.182C249.013 331.371 252.219 329.533 254.7 326.9L255 326.6L248.8 320.8Z" fill="#248B98"/>
</g>
</g>
</g>
<path d="M165.498 261C161.685 261 159.275 256.904 161.127 253.572L188.184 204.869C189.005 203.391 189.024 201.599 188.234 200.104L160.877 148.336C159.117 145.006 161.531 141 165.298 141H186.487C188.34 141 190.042 142.025 190.908 143.664L220.734 200.104C221.524 201.599 221.505 203.391 220.684 204.869L190.929 258.428C190.047 260.016 188.374 261 186.558 261H165.498Z" fill="#40A5B2"/>
<path d="M104.502 141C108.315 141 110.725 145.096 108.873 148.428L81.8159 197.131C80.995 198.609 80.9763 200.401 81.766 201.896L109.123 253.664C110.883 256.994 108.469 261 104.702 261H83.513C81.6596 261 79.9582 259.975 79.0923 258.336L49.266 201.896C48.4763 200.401 48.495 198.609 49.3159 197.131L79.0712 143.572C79.9531 141.984 81.6262 141 83.442 141H104.502Z" fill="#40A5B2"/>
</g>
<defs>
<clipPath id="clip0_15_306">
<rect width="270" height="356" fill="white"/>
</clipPath>
</defs>
</svg>
